<svg xmlns="http://www.w3.org/2000/svg" viewBox="0 0 100 100" fill="none">
  <circle cx="50" cy="50" r="48" fill="#166534"/>
  <circle cx="50" cy="50" r="44" fill="none" stroke="#15803d" stroke-width="1.5"/>
  <path d="M50 18 L72 28 L72 52 C72 64 62 74 50 78 C38 74 28 64 28 52 L28 28 Z" fill="#15803d" stroke="#22c55e" stroke-width="1.5"/>
  <path d="M34 55 L36 49 L40 46 L60 46 L64 49 L66 55 L66 60 L34 60 Z" fill="#22c55e"/>
  <path d="M38 46 L41 40 L59 40 L62 46" fill="#22c55e"/>
  <circle cx="40" cy="60" r="4" fill="#166534" stroke="#22c55e" stroke-width="1.5"/>
  <circle cx="60" cy="60" r="4" fill="#166534" stroke="#22c55e" stroke-width="1.5"/>
  <path d="M42 45 L43 41 L57 41 L58 45 Z" fill="#166534" opacity="0.6"/>
  <text x="50" y="75" text-anchor="middle" font-family="Arial, sans-serif" font-size="8" font-weight="bold" fill="#bbf7d0" letter-spacing="2">NVR</text>
</svg>
